<svg id="Layer_1" data-name="Layer 1" xmlns="http://www.w3.org/2000/svg" viewBox="0 0 815 439"><defs><style>.cls-1{fill:blue;}.cls-2{fill:#f7931e;}</style></defs><title>bandura</title><path class="cls-1" d="M597.47,142.27c-.21-.5.15.42.2.57.1.31.21.62.3.94a19.5,19.5,0,0,1,.53,2.26c0,.16,0,.33.08.49-.09-.58,0,0,0,.09,0,.33,0,.65.07,1a17.63,17.63,0,0,1,0,2.3c0,.22,0,.44-.06.65,0-.06.08-.49,0-.09s-.14.74-.23,1.11-.17.62-.27.93-.46,1.19-.23.69a13.65,13.65,0,0,1-1,1.83c-.08.13-.18.27-.27.4,0-.06.28-.35,0,0a9.84,9.84,0,0,1-.76.82c-.2.19-.42.36-.61.55-.33.34.45-.26,0,0-.11.07-.22.16-.33.24a12.06,12.06,0,0,1-1.7.91c.55-.24,0,0-.22,0s-.61.19-.92.27-.63.12-.94.2c.66-.16,0,0-.32,0a12.91,12.91,0,0,1-1.76,0c-.62,0,.55.14-.29-.06l-.9-.24-.5-.17s.54.27.21.09-.47-.23-.7-.36-.52-.33-.77-.51c.55.39,0,0-.22-.24s-.64-.76-.28-.26c-.17-.24-.33-.48-.48-.73-.06-.1-.5-1-.34-.61s0,0,0-.11c-.07-.22-.14-.44-.2-.66s-.11-.54-.17-.81,0,.18,0,.22c0-.18,0-.36,0-.55s0-.55,0-.83a2.86,2.86,0,0,0,0-.42c0-.39-.12.57,0-.07a16.36,16.36,0,0,1,.47-1.83q.14-.42.3-.84c.19-.49-.22.46,0,0,.09-.18.17-.37.26-.55.31-.6.64-1.18,1-1.75.17-.27.34-.53.53-.79l.37-.51c-.21.29-.1.12,0-.06a24.1,24.1,0,0,1,3-3.07c.13-.11.87-.7.4-.34q.36-.28.75-.54a18.13,18.13,0,0,1,2.07-1.26c.21-.11.43-.22.64-.31-.07,0-.35.13,0,0a9.82,9.82,0,0,1,1.16-.38c.17,0,1-.16.45-.11.2,0,1.34,0,.75-.06.14,0,.91.24.45.06a3.88,3.88,0,0,1,.45.24c.47.24-.3-.3.1,0,.13.1.23.22.35.33s.36.42.16.16.11.17.12.19c.14.23.27.47.41.71s0,0,0-.05a3.75,3.75,0,0,1,.17.47,7,7,0,0,1,.29,1c.07.29.13.82.07.21a10.34,10.34,0,0,1,.07,1.11q0,.42,0,.84c0,.19,0,.38-.05.56,0-.06.13-.57,0-.2-.2.61-.31,1.27-.51,1.9,0,.14-.1.26-.14.4.2-.62.08-.18,0,0s-.24.51-.38.75-.33.58-.51.85-.62.85-.21.34a11.25,11.25,0,0,1-1.24,1.34c-.17.16-.79.67-.27.28-.29.22-.6.42-.91.62s-.47.27-.72.4l-.37.17c-.42.23.52-.12.05,0-.26.05-.52.18-.78.25l-.4.1c-.1,0-.87.13-.37.08s-.39,0-.52,0c-.31,0-.63,0-.93,0,.54,0,.31.06-.1,0s-.64-.17-1-.26c-.61-.18.46.25-.11,0-.25-.13-.51-.26-.76-.41s-.41-.3-.63-.41c-.41-.22.42.39.09.07-.12-.11-.26-.21-.38-.33-.41-.37-.76-.79-1.13-1.19.44.47,0,0-.15-.23s-.32-.5-.47-.75-.25-.54-.4-.79.08.19.09.23c0-.12-.1-.24-.14-.36a16,16,0,0,1-.46-1.68c-.18-.85,0,.41,0-.2,0-.25,0-.49,0-.73s0-.57.05-.85,0,.28,0,.3a3.71,3.71,0,0,0,.1-.48c.07-.27.19-.54.25-.81s-.1.21-.12.24c.08-.14.14-.29.22-.44s.26-.42.39-.64c0-.07.31-.41,0-.06s.11-.11.18-.18.33-.31.49-.47c.41-.39-.54.31.11-.05l.57-.33c.66-.36-.54.14.19-.07a6.73,6.73,0,0,0,1.39-.34s-.7,0-.35.06a1.76,1.76,0,0,0,.33,0q.45,0,.9,0l.34,0c.43,0,.21.16.11,0s-.38-.07,0,0l.33.06a15.73,15.73,0,0,1,1.53.43c.73.25-.4-.23.13.06.19.1.4.2.59.31s.44.27.66.4c.64.4-.29-.3.11.07s.64.69,1,1-.31-.55-.15-.17c0,.09.13.17.18.26s.45.62.41.75-.21-.71-.14-.32c0,.1.08.2.1.3s.1.51.18.73-.1-.33,0-.36a2.06,2.06,0,0,0,0,.34v.34s-.07.79,0,.39-.13.47-.17.61c-.11.37,0,0,.06-.09-.09.19-.19.36-.29.54s-.34.39-.1.14-.13.1-.14.11.5-.29,0,0c.2-.11.51-.21.12-.06-.16.06-.43,0,0,0s0,0,0,0c-.6-.18.11,0,.18,0a2.42,2.42,0,0,1-.36-.1l.23.12-.33-.18c-.1,0-.58-.34-.19-.09s-.08-.07-.16-.14-.54-.82-.22-.2c-.12-.23-.26-.46-.39-.67.31.51.1.08,0-.28s0,.23,0,.28c0-.43,0-.09-.07.14a4.54,4.54,0,0,0,.12-.5c0,.06-.3.51-.1.22.07-.09.47-.75.2-.38s.29-.25.4-.38c0,.05-.5.3-.19.16a4.92,4.92,0,0,0,.43-.26c.68-.41-.32,0,.23-.1l.74-.2c.6-.14,0,0-.14,0,.13,0,.26,0,.38,0s.27,0,.39,0c.63,0-.37-.13,0,0s.51.12.75.18l.37.13c-.15,0-.6-.34-.12,0,.24.16.57.45.18.08a10.32,10.32,0,0,1,.81.81c-.37-.44,0,.05.11.26s.18.34.27.51c0-.07-.15-.51-.07-.15s.18.55.25.83.08.38.12.57c.11.47,0-.51,0,0,0,.29,0,.59,0,.88s-.15,1.06,0,.42c-.06.29-.11.58-.19.86s-.46,1.23-.16.57l2-1.56c-.24.06-.5.1-.73.18-.46.15.49,0,0,0s-.9.05-1.36,0c0,0-.89-.11-.45,0s-.45-.1-.44-.1a9.81,9.81,0,0,1-1.3-.41c-.48-.18.44.23,0,0-.22-.12-.45-.23-.67-.36l-.51-.32c-.52-.32.12.13-.16-.11s-.66-.61-1-.94-.23-.3,0,0a9.06,9.06,0,0,1-.49-.77l.34,2.62a5,5,0,0,1,.24-.84c-.28.69.1-.06.19-.2-.37.6.09-.07.2-.2.29-.26.29-.27,0,0l.36-.24c.09-.06.88-.44.5-.29s.49-.1.56-.14c.25-.05.18-.05-.2,0l.43,0c.88,0-.26-.11.39,0l-2.49-3.27a8.9,8.9,0,0,1,0,1.46c0,.36.13-.37,0,.22-.08.26-.15.53-.23.79-.15.51.21-.39,0,.09a6.23,6.23,0,0,1-.39.72,6.33,6.33,0,0,1-.36.54c.38-.49-.31.27-.33.28a3.39,3.39,0,1,0,4.8,4.8,11.14,11.14,0,0,0,3.32-8.9,3.48,3.48,0,0,0-2.49-3.27,9,9,0,0,0-7.27,1.32c-2.12,1.5-4.36,4.36-3.73,7.14a8.16,8.16,0,0,0,2.24,3.3,12.78,12.78,0,0,0,3,2.25,13.55,13.55,0,0,0,6.64,1.72,10,10,0,0,0,3.69-.65c1.61-.68,2.28-2.53,2.61-4.15a12.41,12.41,0,0,0-.36-6.7,9.66,9.66,0,0,0-11.23-6.37c-4.54.9-8,5.64-6.28,10.22,1.81,4.79,7.82,7.54,12.06,3.92,3.4-2.9,3.71-8.46,1.31-12.07a12.77,12.77,0,0,0-8.77-5.42c-3.71-.55-7.78.26-10.38,3.18a11.9,11.9,0,0,0-2.34,11.38,14.44,14.44,0,0,0,7.2,8.82,12.6,12.6,0,0,0,12.29-.77,16.09,16.09,0,0,0,7-10.22c.9-4.7-.28-10.43-4.62-13.11-4.89-3-10.67-.15-14.67,3a24.81,24.81,0,0,0-7.85,10.58c-1.52,4-1.4,8.78,1.16,12.33a12.61,12.61,0,0,0,11.2,5.12,15.15,15.15,0,0,0,11.27-6.07A18.55,18.55,0,0,0,605.29,146a26.23,26.23,0,0,0-2-7.12c-.7-1.64-3.24-2.12-4.64-1.22a3.5,3.5,0,0,0-1.22,4.65Z"/><path class="cls-1" d="M97.79,52.49c36.75,14.39,62,49,97,67.11,12.36,6.39,25.73,10.59,39.16,14.26C265.61,142.5,298,148.35,329,159s61.14,26.72,82,52c31.59,38.13,37.49,94.13,19.55,140.28-10.64,27.39-29.25,51.92-53.86,68s-55.27,23.2-84.16,17.86c-44-8.13-78.93-43.77-98.16-84.2S169.11,267.28,162.86,223c-1.52-10.75-3.1-21.67-7.52-31.59-4.06-9.09-10.35-17-16.74-24.63A671.06,671.06,0,0,0,55.26,83.28c-7,4.36-5.61,19.21-13.82,18.6-2.31-.17-4.21-1.82-5.92-3.38L.2,66.25,21.57,9.71C22.88,6.22,24.51,2.4,27.91.86,32-1,36.74,1.35,40.65,3.64L88.09,31.46c7.72,4.53,16.66,12.69,12.64,20.69"/><path class="cls-2" d="M813,268.63a398.7,398.7,0,0,0-64.49-65.48,3.06,3.06,0,0,0-4.24,0L674,280.77h4.25L605.09,209.7a3,3,0,0,0-4.71.61l-48.49,79.46,4.72-.6a1241.58,1241.58,0,0,1-79.1-99.11,3,3,0,0,0-5.18,0l-68.08,94.62h5.18L338.81,177.31c-1.14-1.72-4.17-2.17-5.18,0a518.85,518.85,0,0,1-53.26,89l4.71-.61-59.75-59c-2.75-2.72-7,1.52-4.24,4.24l59.75,59a3,3,0,0,0,4.71-.6,518.85,518.85,0,0,0,53.26-89h-5.18l70.62,107.37a3,3,0,0,0,5.18,0l68.08-94.63h-5.18a1257.71,1257.71,0,0,0,80,100.33,3,3,0,0,0,4.72-.61l48.48-79.47-4.71.61L674,285a3,3,0,0,0,4.25,0l70.28-77.62h-4.24a399.49,399.49,0,0,1,64.49,65.48c2.37,3,6.59-1.23,4.24-4.24Z"/><path class="cls-1" d="M473.59,135.76c-.22-.71.09,0,0,.13s0-1,0-.29.07,0,.09-.17c0-.35-.11.44-.17.39a3,3,0,0,1,.19-.32c.18-.41-.51.48,0,0,.13-.13.6-.43.16-.19s.2-.13.31-.19.82-.38.31-.19.14,0,.26-.07a3.33,3.33,0,0,0,.69-.16s-.74,0-.4.05c.1,0,.2,0,.3,0s.92.06.33,0,.17.08.31.1.48.15-.05,0-.13-.08-.06,0a1.28,1.28,0,0,0,.25.15c.3.11-.3-.16-.3-.23s.34.26.29.29-.4-.65-.13-.16a2.14,2.14,0,0,0,.17.3c.27.29-.2-.29-.1-.31a4.29,4.29,0,0,1,.19.63c.17.51,0-.67,0,.08a7.41,7.41,0,0,0,0,.78c-.06,0,.16-.69,0-.35a3.54,3.54,0,0,0-.11.44c0,.12-.24.84-.1.35s-.1.19-.18.33-.11.2-.17.3-.43.69-.14.23-.16.18-.26.28-.36.31-.51.48c-.29.33.52-.29.13-.1a2.9,2.9,0,0,0-.29.19c-.17.1-.86.35-.42.24s-.37.08-.47.12c-.58.18.63,0-.06,0h-.82c-.1,0-.49-.11-.08,0s-.31-.1-.33-.1c-.26-.07-.5-.17-.76-.25.56.19.11,0-.15-.12s-.54-.34-.8-.5.11.08.14.11c-.13-.12-.28-.23-.41-.36s-.39-.38-.58-.59l-.36-.42s.3.46.12.13c-.3-.52-.62-1-.9-1.56.34.66,0-.16-.1-.35a7.79,7.79,0,0,1-.2-.8c0-.14-.05-.27-.08-.41,0,.12.05.74,0,.11,0-.31,0-.62,0-.93s0-.53.05-.8,0,.22,0,.25c0-.17.06-.36.1-.53s.12-.52.2-.77.08-.25.13-.38.21-.63.06-.22,0,0,0-.08l.24-.48c.13-.24.26-.47.4-.7s.3-.44.45-.66c-.4.59.13-.15.31-.34a10.75,10.75,0,0,1,1.16-1.08c-.61.5.11,0,.28-.16s.53-.3.8-.44c.06,0,.47-.22.07-.05s.1,0,.2-.06a7.25,7.25,0,0,1,.76-.22c.14,0,.91-.14.47-.11s0,0,.09,0h.69c.15,0,.91.12.5,0s.36.1.48.13c.31.08.61.2.91.29,0,0-.52-.25-.18-.07l.49.24c.24.13.48.27.71.42s.3.21.46.32-.12-.08-.15-.11c.47.45.92.87,1.35,1.37-.38-.44,0,0,.11.19s.28.46.41.71.11.24.18.36c.22.43-.15-.53,0-.06.08.3.2.59.27.9,0,.13,0,.26.07.39.09.38,0-.2,0-.24,0,.32,0,.64,0,.95a2.54,2.54,0,0,1,0,.41c-.06,0,.16-.65,0-.28s-.12.52-.2.77a1.64,1.64,0,0,1-.15.43c-.05,0,.34-.62.11-.29s-.21.41-.33.6-.46.73-.19.31,0,0-.09.1l-.32.33-.5.47c-.57.52.35-.19-.14.1s-.87.49-1.3.74.3-.14.28-.11a2.61,2.61,0,0,1-.43.16c-.22.07-.44.14-.66.19l-.67.14s.89-.06.22,0l-.45,0h-.67c-.63,0,.62.15,0,0l-.76-.18s-.32-.1-.31-.11.68.35.19.08c-.2-.11-.41-.21-.6-.33,0,0-.39-.25-.38-.26s.52.49.29.21a5.66,5.66,0,0,0-.43-.42c-.51-.52.29.54-.07-.1l-.28-.5-.13-.26c.06,0,.22.7.16.36s-.14-.44-.2-.65-.15-.92-.08-.32,0-.1,0-.24,0-.47,0-.7a2.51,2.51,0,0,0,0-.61s-.14.74-.05.41c.05-.16.06-.34.1-.5.09-.4.22-.78.34-1.17.18-.58-.31.6,0,.06.12-.24.24-.48.37-.71s.22-.34.33-.51c.29-.49-.52.56,0,0a6.7,6.7,0,0,1,.91-.88s-.74.47-.23.18a2.07,2.07,0,0,0,.25-.15c.16-.1.35-.17.5-.28.31-.22-.4.22-.37.15a1.15,1.15,0,0,1,.28-.09l.75-.19c.33-.09-.39.06-.41.06a1.62,1.62,0,0,0,.31,0,2.76,2.76,0,0,0,.7,0c-.32.11-.71-.16-.14,0,.17.05.8.33.31.06-.65-.35.71.46.73.45s-.61-.56-.11-.07c.18.18.36.35.53.54.5.53-.11,0-.06-.1s.29.44.32.48.22.4.33.59c.36.64-.16-.52,0,0s.27.8.37,1.22c0,.19.06.39.11.58s-.07-.41,0-.42,0,.43,0,.48c0,.39,0,.77,0,1.16s.05-.42.06-.43a1.59,1.59,0,0,0-.06.37c-.06.21-.1.42-.17.63s-.27.75-.05.2-.08.11-.16.25-.32.4-.3.46.48-.51.24-.33a3.2,3.2,0,0,0-.25.27c-.63.62,0,0,0,0l-.5.31-.27.14c-.32.2.28-.16.31-.13s-.78.18-.81.22.73,0,.39-.06c-.1,0-.2,0-.3,0s-1-.05-.36,0-.09,0-.24-.08-.53-.25-.68-.23c.08,0,.73.38.24.09l-.28-.15c-.18-.1-.36-.22-.53-.33a2.5,2.5,0,0,0-.26-.18s.49.46.26.19-.43-.38-.63-.58-.28-.33-.43-.48.22.23.2.26l-.19-.27c-.14-.21-.28-.42-.4-.63l-.15-.29c-.09-.16-.13-.5-.06-.07s-.08-.25-.12-.39-.1-.4-.15-.6c-.17-.58,0,.7,0,.1,0-.27,0-.54,0-.81,0-.58-.18.67,0,.11a2.82,2.82,0,0,0,.16-.58c0,.06-.4.76-.1.25l.15-.27c.12-.22.62-.79,0-.1a3.46,3.46,0,0,0,0-4.8c-1.25-1.16-3.57-1.45-4.79,0a8.89,8.89,0,0,0-1.61,9.1,11.92,11.92,0,0,0,6.68,6.9,8.62,8.62,0,0,0,9-1.69,9.73,9.73,0,0,0,2.91-7.57c-.3-6.15-5.16-11.66-11.67-10.4-6,1.16-9.13,8.41-7.75,13.9a9.5,9.5,0,0,0,6.39,6.69,11.69,11.69,0,0,0,9.38-1.33A11.23,11.23,0,0,0,487,133a11.9,11.9,0,0,0-3.9-10.24,12.66,12.66,0,0,0-10.73-3.29,13.34,13.34,0,0,0-8.6,6A13.87,13.87,0,0,0,461.81,136a12.9,12.9,0,0,0,6.66,8.51,9.82,9.82,0,0,0,10.91-1.21,10,10,0,0,0,3.36-9.28,7.46,7.46,0,0,0-7.41-6,9,9,0,0,0-7.77,4.42,6.79,6.79,0,0,0-.52,5.17,3.4,3.4,0,0,0,6.55-1.81Z"/><path class="cls-1" d="M73.08,307c.89-.27,0,0,0-.07s.54,0,0-.06a4,4,0,0,1,.59.17c-.59-.25,0,0,0,.08-.48-.59.69.72.47.45s.6,1.17.38.6c.07.17.27,1.33.23.72a7.62,7.62,0,0,1,0,1.17c.07-.77-.17.43-.23.65-.12.48.24-.47,0,0-.11.22-.21.43-.33.64s-.75,1-.31.5a10.84,10.84,0,0,1-.81.85c-.14.14-.29.26-.44.39.47-.39.09-.06,0,0-.43.26-.85.5-1.29.74s-.14.07,0,0l-.56.19c-.38.12-.77.18-1.15.28.61-.16.22,0,0,0s-.39,0-.59,0l-.58,0c-.82,0,.51.2-.27,0-.37-.12-.76-.2-1.13-.35.65.25-.29-.18-.48-.3l-.48-.31c.51.34.12.11,0,0-.36-.32-.69-.66-1-1-.09-.1-.37-.5,0,0l-.33-.47c-.21-.33-.38-.68-.57-1-.31-.54-.08-.13,0,0-.08-.18-.14-.37-.21-.55a11.31,11.31,0,0,1-.39-1.41c0-.19-.07-.39-.1-.58,0,.15,0,.67,0,0,0-.39,0-.78,0-1.17,0-.22.18-1.28,0-.55.1-.48.24-.94.35-1.41,0-.13.23-.62,0,0,.08-.19.17-.37.26-.55.19-.37.42-.72.64-1.07.34-.54.13-.18,0-.06.13-.16.27-.32.41-.47a12.74,12.74,0,0,1,1.13-1.07c-.48.41.45-.3.57-.38.36-.22.72-.43,1.09-.61q.28-.15.57-.27c-.54.23,0,0,.07,0,.5-.16,1-.32,1.51-.44.22,0,1.31-.22.66-.15.42,0,.84-.07,1.26-.08s.84,0,1.26,0c.67,0,.19,0,0,0a9.37,9.37,0,0,1,.92.19,8.94,8.94,0,0,1,3.91,2.06c.33.3.62.62.92.94.06.06.4.5.08.07.13.17.25.36.37.53.24.37.44.74.65,1.12.05.09.25.59,0,.07.12.3.22.61.31.91s.25,1.29.18.68a11.36,11.36,0,0,1,0,1.3c0,.12-.08.66,0,.07,0,.21-.08.43-.14.64s-.12.41-.18.62c-.15.57.07-.06-.08.25a10.82,10.82,0,0,1-.73,1.28c0,.08-.39.49-.06.09-.14.17-.28.33-.43.49s-.32.3-.47.45-.49.41-.06.08a9.19,9.19,0,0,1-1.23.75c-.48.25.44-.14-.07,0l-.76.22c-.12,0-.65.1,0,0-.21,0-.43,0-.64,0s-.43,0-.65,0c.16,0,.66.17.1,0a4.91,4.91,0,0,0-.51-.15c-.59-.13.24.2,0,0a8.38,8.38,0,0,0-.91-.54c-.41-.23.51.53,0-.06l-.38-.37-.35-.4c.09.1.36.56,0,.05a12,12,0,0,0-.61-1.05c-.28-.37.15.51,0,.07-.06-.22-.15-.43-.22-.64s-.09-.35-.13-.52c-.09-.38-.08-.73-.05-.15,0-.45,0-.88,0-1.32,0,.13-.17.71,0,.12.06-.21.11-.42.17-.63s.25-.63.06-.21.14-.23.19-.31.19-.3.3-.45c-.48.67,0,0,.14-.08.36-.42,0,0-.1.05.2-.14.41-.28.62-.4l.45-.23c-.37.19-.41.14,0,0s.73-.19,1.11-.26c-.89.18.33,0,.62,0a4.49,4.49,0,0,0,.51,0c-.77,0-.16,0,.11,0s.74.24,1.11.31-.49-.29-.11-.05c.17.12.38.19.56.3l.42.26c.64.38-.4-.45.09.09.11.11.24.25.36.35.52.47-.27-.53.08.09l.25.43c.38.57-.18-.58.07.13a3.47,3.47,0,0,0,4.17,2.37,3.43,3.43,0,0,0,2.37-4.18c-1.79-5.07-7-7.55-12.16-6.77a9.64,9.64,0,0,0-8.16,10.27c.44,5.32,4.38,10.11,9.88,10.55,5.75.46,11.07-4.42,12.07-9.92,1.09-5.9-2.31-11.68-7.42-14.55a16.36,16.36,0,0,0-15.63,0,14,14,0,0,0-7.56,12.92c.34,5.36,3.43,10.37,8.57,12.29,5.52,2.06,12.47-1,15-6.22a10.19,10.19,0,0,0,0-9.61c-1.77-3.19-5.45-5.28-9.08-4.19a3.4,3.4,0,1,0,1.8,6.55Z"/></svg>