<?xml version="1.0" encoding="utf-8"?>
<!-- Generator: Adobe Illustrator 23.0.5, SVG Export Plug-In . SVG Version: 6.00 Build 0)  -->
<svg version="1.1" id="Layer_1" xmlns="http://www.w3.org/2000/svg" xmlns:xlink="http://www.w3.org/1999/xlink" x="0px" y="0px"
	 viewBox="0 0 1071 745" style="enable-background:new 0 0 1071 745;" xml:space="preserve">
<style type="text/css">
	.st0{fill:#FFFFCC;}
	.st1{fill:#FFFBDC;}
	.st2{fill:#FF931E;}
	.st3{fill:#0000FF;}
	.st4{fill:#F7931E;}
	.st5{clip-path:url(#SVGID_2_);}
	.st6{fill:#C1272D;}
	.st7{fill:none;}
	.st8{clip-path:url(#SVGID_4_);}
	.st9{fill:#FFFFFF;}
	.st10{fill:#FBB03B;}
	.st11{clip-path:url(#SVGID_8_);}
	.st12{clip-path:url(#SVGID_10_);}
	.st13{clip-path:url(#SVGID_12_);}
	.st14{clip-path:url(#SVGID_14_);}
	.st15{clip-path:url(#SVGID_16_);}
	.st16{clip-path:url(#SVGID_18_);}
	.st17{clip-path:url(#SVGID_20_);}
</style>
<g>
	<g>
		<g>
			<path class="st3" d="M144.75,145.18c-15.31-19.81-31.54-38.91-48.61-57.23c-16.97-18.2-34.77-35.63-53.34-52.2
				c-10.53-9.4-21.3-18.52-32.31-27.36c-0.97,1.67-1.95,3.34-2.92,5.01c17.18,5.43,34.25,11.21,51.19,17.36
				c16.94,6.15,33.74,12.65,50.41,19.51c16.57,6.82,32.99,14,49.25,21.52c16.35,7.56,32.55,15.47,48.57,23.72
				c15.95,8.21,31.73,16.76,47.32,25.63c1.97,1.12,3.95,2.25,5.91,3.39c3.35,1.93,6.38-3.25,3.03-5.18
				c-15.68-9.04-31.55-17.74-47.6-26.1c-15.98-8.33-32.13-16.31-48.45-23.96c-16.48-7.72-33.13-15.08-49.92-22.1
				c-16.7-6.98-33.54-13.61-50.52-19.87c-16.9-6.24-33.94-12.12-51.09-17.63C13.5,9,11.33,8.31,9.17,7.62
				c-2.72-0.86-5.3,3.1-2.92,5.01C25.77,28.32,44.57,44.9,62.56,62.31c17.88,17.31,34.97,35.43,51.2,54.31
				c9.2,10.7,18.12,21.65,26.75,32.81c0.99,1.28,3.2,1.04,4.24,0C146.01,148.16,145.74,146.47,144.75,145.18L144.75,145.18z"/>
		</g>
	</g>
	<g>
		<g>
			<path class="st3" d="M218.34,249.42c9.58,73.42,4.11,149.18,24.66,220.98c9.64,33.68,25.43,65.08,47.61,92.24
				c20.88,25.57,46.5,47.01,74.03,65.09c59.95,39.36,129.05,63.76,198.31,80.84c80.83,19.94,165.02,29.51,248.09,20.65
				c75.73-8.08,150.25-30.77,216.75-68.1c8.17-4.59,16.21-9.41,24.12-14.43c2.99-1.9,0.22-6.69-2.79-4.77
				c-63.43,40.31-135.52,66.28-209.66,78.01c-81.36,12.88-164.6,7.18-244.93-9.79c-70.78-14.95-141.49-37.21-204.5-73.32
				c-58.52-33.54-109.6-80.68-134.05-144.82c-26.24-68.85-22.72-143.94-29.23-216.15c-0.8-8.83-1.75-17.64-2.89-26.43
				C223.41,245.94,217.88,245.89,218.34,249.42L218.34,249.42z"/>
		</g>
	</g>
	<g>
		<g>
			<path class="st3" d="M396.78,166.87c15.24-5.2,30.9-9.17,46.78-11.86c15.77-2.67,31.75-4.03,47.74-4.13
				c9.07-0.05,18.14,0.31,27.17,1.08c1.62,0.14,3-1.48,3-3c0-1.74-1.38-2.86-3-3c-16.13-1.37-32.35-1.44-48.49-0.19
				c-16.32,1.26-32.55,3.81-48.46,7.65c-8.89,2.15-17.68,4.71-26.34,7.66c-1.53,0.52-2.54,2.06-2.1,3.69
				C393.5,166.26,395.24,167.39,396.78,166.87L396.78,166.87z"/>
		</g>
	</g>
</g>
</svg>
