<?xml version="1.0" encoding="utf-8"?>
<!-- Generator: Adobe Illustrator 23.0.5, SVG Export Plug-In . SVG Version: 6.00 Build 0)  -->
<svg version="1.1" id="Layer_1" xmlns="http://www.w3.org/2000/svg" xmlns:xlink="http://www.w3.org/1999/xlink" x="0px" y="0px"
	 viewBox="0 0 413 559" style="enable-background:new 0 0 413 559;" xml:space="preserve">
<style type="text/css">
	.st0{fill:#FFFFCC;}
	.st1{fill:#FFFBDC;}
	.st2{fill:#FF931E;}
	.st3{fill:#0000FF;}
	.st4{fill:#F7931E;}
	.st5{clip-path:url(#SVGID_2_);}
	.st6{fill:#C1272D;}
	.st7{fill:none;}
	.st8{clip-path:url(#SVGID_4_);}
	.st9{fill:#FFFFFF;}
	.st10{fill:#FBB03B;}
	.st11{clip-path:url(#SVGID_10_);}
	.st12{clip-path:url(#SVGID_12_);}
	.st13{clip-path:url(#SVGID_14_);}
	.st14{clip-path:url(#SVGID_16_);}
	.st15{clip-path:url(#SVGID_18_);}
	.st16{clip-path:url(#SVGID_20_);}
	.st17{clip-path:url(#SVGID_22_);}
	.st18{fill:none;stroke:#0000FF;stroke-width:2.8346;stroke-linecap:round;stroke-miterlimit:10;}
</style>
<g>
	<g>
		<path class="st6" d="M177.89,137.03c-24.17,102.76-25.62,211.58-66.48,308.91c-0.91,2.17-1.86,4.56-1.17,6.81
			c0.63,2.04,2.45,3.45,4.17,4.71c13.02,9.58,26.05,19.15,39.07,28.73c17.06-7.9,33.48-17.19,49.03-27.76
			c3.21-2.18,6.52-4.58,8.12-8.12c1.54-3.4,1.23-7.32,0.91-11.04c-7.27-84.16-7.86-169.18,3.52-252.89
			c8.55,28.97,17.1,57.99,23.07,87.61c9,44.63,12.07,90.37,22.65,134.65c2.48,10.4,5.69,21.24,13.46,28.59
			c6.04,5.71,12.82,11.52,20.16,15.42c11.63,6.17,19,11,29,17c10.04-11.47,17.69-21.94,26.39-34.46c2.2-3.17,4.43-6.57,4.73-10.42
			c0.23-2.92-0.69-5.8-1.59-8.59c-23.91-73.63-47.81-147.25-71.72-220.88c-6.58-20.26-13.16-40.52-19.73-60.78
			c-0.23-0.7-0.5-1.47-1.14-1.84"/>
	</g>
	<g>
		<g>
			<path class="st4" d="M145.27,463.42c0.48-17.54,0.64-35.09,0.47-52.64c-0.17-17.55-0.65-35.09-1.46-52.62
				c-0.46-9.92-1.02-19.84-1.69-29.75c-0.26-3.83-5.84-3.89-6,0c-0.05,1.09-0.09,2.18-0.14,3.27c-0.07,1.62,1.43,3,3,3
				c1.68,0,2.93-1.37,3-3c0.05-1.09,0.09-2.18,0.14-3.27c-2,0-4,0-6,0c1.17,17.51,2.03,35.04,2.56,52.58
				c0.53,17.54,0.74,35.09,0.63,52.64c-0.06,9.93-0.23,19.86-0.5,29.79C139.17,467.28,145.17,467.28,145.27,463.42L145.27,463.42z"
				/>
		</g>
	</g>
	<g>
		<g>
			<path class="st4" d="M311.98,443.24c-1.27-7.48-3.34-14.78-5.58-22.01c-2.32-7.48-4.71-14.93-7.07-22.39
				c-4.72-14.92-9.43-29.84-14.15-44.75c-2.66-8.41-5.32-16.82-7.98-25.23c-0.49-1.54-2.09-2.54-3.69-2.1
				c-1.52,0.42-2.59,2.14-2.1,3.69c9.47,29.95,18.98,59.9,28.41,89.86c2.54,8.06,4.95,16.18,6.37,24.53c0.27,1.6,2.24,2.49,3.69,2.1
				C311.58,446.47,312.25,444.85,311.98,443.24L311.98,443.24z"/>
		</g>
	</g>
	<g>
		<g>
			<path class="st3" d="M167.09,44.24c-26.41-1-51.5,10.46-75.43,21.67c-2.4,1.13-4.89,2.31-6.59,4.34
				c-2.12,2.52-2.72,5.94-3.2,9.19c-4.1,27.74-4.66,56.09-11.7,83.23s-21.91,53.95-46.73,66.99c22.21-0.56,47.8-3.09,60.36-21.42
				c4.53-6.62,6.69-14.53,8.78-22.28c4.44-16.51,8.88-33.01,13.31-49.52c0.71-2.64,1.46-5.36,3.13-7.53
				c2.35-3.05,6.13-4.56,9.73-5.92c23.58-8.96,47.16-17.92,70.74-26.88c1.21-13.49-1.52-27.3-7.77-39.32"/>
		</g>
		<g>
			<path class="st3" d="M212.25,43.94c0.47,13.97,2.24,27.9,5.3,41.54c0.58,2.6,1.27,5.31,3.05,7.29c3.21,3.57,8.7,3.6,13.5,3.35
				c9.68-0.5,19.36-1,29.04-1.51c3.7-0.19,7.64-0.33,10.87,1.5c2.84,1.62,4.68,4.52,6.31,7.36c8.22,14.29,14.29,29.82,17.93,45.9
				c3.31,14.61,5.37,31.04,16.79,40.74c15.15,12.87,38.04,7.07,56.84,0.61c-10.89-3.77-22.35-7.94-29.64-16.87
				c-5.93-7.27-8.27-16.73-10.45-25.85c-4.67-19.56-9.35-39.12-14.02-58.69c-2.96-12.4-6.15-25.26-14.22-35.12
				c-9.99-12.2-26.2-17.93-41.95-18.67c-15.75-0.74-31.33,2.92-46.68,6.55"/>
		</g>
		<g>
			<g>
				<path class="st2" d="M200.91,47.54c-0.71,12.38,1.9,24.76,7.37,35.87c0.72,1.45,2.78,1.85,4.1,1.08
					c1.48-0.87,1.79-2.65,1.08-4.1c-5.01-10.17-7.2-21.54-6.55-32.85c0.09-1.62-1.45-3-3-3C202.21,44.54,201,45.91,200.91,47.54
					L200.91,47.54z"/>
			</g>
		</g>
		<g>
			<g>
				<path class="st2" d="M229.17,66.16c1.63,3.93,3.25,7.85,4.88,11.78c0.31,0.75,0.64,1.36,1.38,1.79c0.64,0.38,1.59,0.54,2.31,0.3
					c0.73-0.23,1.43-0.68,1.79-1.38c0.35-0.66,0.6-1.58,0.3-2.31c-1.63-3.93-3.25-7.85-4.88-11.78c-0.31-0.75-0.64-1.36-1.38-1.79
					c-0.64-0.38-1.59-0.54-2.31-0.3c-0.73,0.23-1.43,0.68-1.79,1.38C229.12,64.51,228.87,65.44,229.17,66.16L229.17,66.16z"/>
			</g>
		</g>
		<g>
			<g>
				<path class="st2" d="M247.24,58.97c0.92,6.36,4.19,12.41,8.91,16.76c1.15,1.06,3.12,1.23,4.24,0c1.06-1.16,1.23-3.11,0-4.24
					c-0.52-0.48-1.01-0.97-1.49-1.48c-0.25-0.27-0.5-0.55-0.74-0.83c-0.11-0.13-0.21-0.25-0.32-0.38c0,0-0.47-0.6-0.22-0.28
					c0.22,0.29-0.1-0.14-0.14-0.19c-0.12-0.17-0.24-0.33-0.36-0.5c-0.19-0.27-0.37-0.54-0.55-0.82c-0.4-0.62-0.77-1.27-1.12-1.92
					c-0.15-0.29-0.3-0.59-0.44-0.88c-0.09-0.19-0.18-0.37-0.26-0.56c-0.03-0.06-0.24-0.55-0.1-0.21c0.15,0.34-0.06-0.15-0.08-0.21
					c-0.08-0.19-0.15-0.38-0.22-0.58c-0.11-0.31-0.22-0.62-0.32-0.93c-0.46-1.41-0.79-2.86-1-4.33c-0.23-1.56-2.28-2.55-3.69-2.1
					C247.63,55.83,247,57.3,247.24,58.97L247.24,58.97z"/>
			</g>
		</g>
		<g>
			<g>
				<path class="st2" d="M280.3,60.16c0.64,4.45,2.63,8.54,5.43,12.02c0.45,0.56,1.43,0.88,2.12,0.88c0.74,0,1.61-0.33,2.12-0.88
					c0.52-0.57,0.91-1.32,0.88-2.12c-0.04-0.84-0.35-1.47-0.88-2.12c-0.08-0.09-0.15-0.19-0.23-0.28c0.28,0.37,0.33,0.43,0.14,0.17
					c-0.14-0.2-0.29-0.39-0.42-0.59c-0.28-0.4-0.54-0.81-0.79-1.22c-0.48-0.81-0.9-1.65-1.29-2.5c-0.09-0.21-0.05-0.11,0.13,0.3
					c-0.05-0.11-0.09-0.22-0.14-0.34c-0.09-0.23-0.17-0.45-0.25-0.68c-0.16-0.46-0.31-0.92-0.44-1.39c-0.26-0.93-0.46-1.88-0.6-2.84
					c-0.1-0.69-0.81-1.46-1.38-1.79c-0.64-0.38-1.59-0.54-2.31-0.3c-0.73,0.23-1.43,0.68-1.79,1.38
					C280.2,58.61,280.18,59.32,280.3,60.16L280.3,60.16z"/>
			</g>
		</g>
		<g>
			<g>
				<path class="st2" d="M104.22,98.39c0.85,7.54,1.7,15.07,2.56,22.61c0.18,1.61,1.25,3,3,3c1.48,0,3.18-1.38,3-3
					c-0.85-7.54-1.7-15.07-2.56-22.61c-0.18-1.61-1.25-3-3-3C105.74,95.39,104.03,96.77,104.22,98.39L104.22,98.39z"/>
			</g>
		</g>
		<g>
			<g>
				<path class="st2" d="M128.54,79.86c-0.84,5.91-1.69,11.82-2.53,17.74c-0.22,1.55,0.38,3.3,2.1,3.69
					c1.42,0.32,3.45-0.43,3.69-2.1c0.84-5.91,1.69-11.82,2.53-17.74c0.22-1.55-0.38-3.3-2.1-3.69
					C130.81,77.45,128.78,78.2,128.54,79.86L128.54,79.86z"/>
			</g>
		</g>
		<g>
			<g>
				<path class="st2" d="M139.44,72.42c-0.63,5.1,0.61,10.44,3.29,14.82c0.82,1.34,2.72,1.97,4.1,1.08c1.34-0.87,1.95-2.67,1.08-4.1
					c-0.32-0.52-0.61-1.05-0.88-1.59c-0.1-0.2-0.2-0.41-0.29-0.62c-0.06-0.14-0.12-0.28-0.18-0.42c0.15,0.37,0.17,0.4,0.04,0.09
					c-0.37-1.04-0.72-2.07-0.95-3.16c-0.06-0.26-0.11-0.52-0.15-0.78c-0.03-0.15-0.05-0.3-0.07-0.45c-0.05-0.34-0.04-0.3,0.01,0.12
					c0.03-0.03-0.07-0.63-0.07-0.68c-0.03-0.3-0.05-0.6-0.06-0.91c-0.05-1.14,0.01-2.27,0.14-3.4c0.09-0.71-0.4-1.64-0.88-2.12
					c-0.52-0.52-1.37-0.91-2.12-0.88C140.65,69.5,139.64,70.74,139.44,72.42L139.44,72.42z"/>
			</g>
		</g>
		<g>
			<g>
				<path class="st2" d="M79.2,193.75c-1.32,9.6-4.88,18.65-10.49,26.55c-0.94,1.32-0.23,3.34,1.08,4.1c1.5,0.88,3.16,0.25,4.1-1.08
					c5.86-8.26,9.72-17.95,11.09-27.98c0.22-1.6-0.39-3.22-2.1-3.69C81.49,191.27,79.42,192.13,79.2,193.75L79.2,193.75z"/>
			</g>
		</g>
	</g>
</g>
</svg>
